<mxfile host="Electron" modified="2023-09-24T04:18:58.890Z" agent="Mozilla/5.0 (X11; Linux x86_64) AppleWebKit/537.36 (KHTML, like Gecko) draw.io/21.5.0 Chrome/112.0.5615.204 Electron/24.5.1 Safari/537.36" etag="adWUgaOdr1BakSBKAfi7" version="21.5.0" type="device">
  <diagram name="Page-1" id="KmXl91NfciILuDux3KEF">
    <mxGraphModel dx="524" dy="328" grid="1" gridSize="10" guides="1" tooltips="1" connect="1" arrows="1" fold="1" page="1" pageScale="1" pageWidth="850" pageHeight="1100" math="1" shadow="0">
      <root>
        <mxCell id="0" />
        <mxCell id="1" parent="0" />
        <mxCell id="tiuoFYLvW-MkzUnGiu4A-1" style="edgeStyle=orthogonalEdgeStyle;rounded=0;orthogonalLoop=1;jettySize=auto;html=1;endArrow=none;endFill=0;" edge="1" parent="1" source="tiuoFYLvW-MkzUnGiu4A-3">
          <mxGeometry relative="1" as="geometry">
            <mxPoint x="190" y="130" as="targetPoint" />
          </mxGeometry>
        </mxCell>
        <mxCell id="tiuoFYLvW-MkzUnGiu4A-2" style="edgeStyle=orthogonalEdgeStyle;rounded=0;orthogonalLoop=1;jettySize=auto;html=1;entryX=0.506;entryY=0.079;entryDx=0;entryDy=0;entryPerimeter=0;endArrow=none;endFill=0;" edge="1" parent="1" source="tiuoFYLvW-MkzUnGiu4A-3" target="tiuoFYLvW-MkzUnGiu4A-5">
          <mxGeometry relative="1" as="geometry" />
        </mxCell>
        <mxCell id="tiuoFYLvW-MkzUnGiu4A-3" value="" style="shape=waypoint;sketch=0;fillStyle=solid;size=6;pointerEvents=1;points=[];fillColor=none;resizable=0;rotatable=0;perimeter=centerPerimeter;snapToPoint=1;" vertex="1" parent="1">
          <mxGeometry x="120" y="120" width="20" height="20" as="geometry" />
        </mxCell>
        <mxCell id="tiuoFYLvW-MkzUnGiu4A-4" style="edgeStyle=orthogonalEdgeStyle;rounded=0;orthogonalLoop=1;jettySize=auto;html=1;endArrow=none;endFill=0;" edge="1" parent="1" source="tiuoFYLvW-MkzUnGiu4A-5">
          <mxGeometry relative="1" as="geometry">
            <mxPoint x="190" y="190" as="targetPoint" />
          </mxGeometry>
        </mxCell>
        <mxCell id="tiuoFYLvW-MkzUnGiu4A-5" value="" style="shape=waypoint;sketch=0;fillStyle=solid;size=6;pointerEvents=1;points=[];fillColor=none;resizable=0;rotatable=0;perimeter=centerPerimeter;snapToPoint=1;" vertex="1" parent="1">
          <mxGeometry x="120" y="180" width="20" height="20" as="geometry" />
        </mxCell>
        <mxCell id="tiuoFYLvW-MkzUnGiu4A-14" style="orthogonalLoop=1;jettySize=auto;html=1;endArrow=none;endFill=0;rounded=0;strokeColor=default;" edge="1" parent="1">
          <mxGeometry relative="1" as="geometry">
            <mxPoint x="190" y="130" as="sourcePoint" />
            <mxPoint x="190" y="190" as="targetPoint" />
          </mxGeometry>
        </mxCell>
        <mxCell id="tiuoFYLvW-MkzUnGiu4A-9" value="\(100\)" style="text;html=1;strokeColor=none;fillColor=none;align=center;verticalAlign=middle;whiteSpace=wrap;rounded=0;" vertex="1" parent="1">
          <mxGeometry x="100" y="120" width="25" height="20" as="geometry" />
        </mxCell>
        <mxCell id="tiuoFYLvW-MkzUnGiu4A-10" value="\(10 1\)" style="text;html=1;strokeColor=none;fillColor=none;align=center;verticalAlign=middle;whiteSpace=wrap;rounded=0;" vertex="1" parent="1">
          <mxGeometry x="170" y="110" width="20" height="20" as="geometry" />
        </mxCell>
        <mxCell id="tiuoFYLvW-MkzUnGiu4A-11" value="\(000\)" style="text;html=1;strokeColor=none;fillColor=none;align=center;verticalAlign=middle;whiteSpace=wrap;rounded=0;" vertex="1" parent="1">
          <mxGeometry x="119" y="190" width="20" height="20" as="geometry" />
        </mxCell>
        <mxCell id="tiuoFYLvW-MkzUnGiu4A-12" value="\(001\)" style="text;html=1;strokeColor=none;fillColor=none;align=center;verticalAlign=middle;whiteSpace=wrap;rounded=0;" vertex="1" parent="1">
          <mxGeometry x="180" y="189" width="20" height="20" as="geometry" />
        </mxCell>
        <mxCell id="tiuoFYLvW-MkzUnGiu4A-15" value="" style="shape=waypoint;sketch=0;fillStyle=solid;size=6;pointerEvents=1;points=[];fillColor=none;resizable=0;rotatable=0;perimeter=centerPerimeter;snapToPoint=1;" vertex="1" parent="1">
          <mxGeometry x="150" y="90" width="20" height="20" as="geometry" />
        </mxCell>
        <mxCell id="tiuoFYLvW-MkzUnGiu4A-17" value="" style="endArrow=none;html=1;rounded=0;exitX=0.524;exitY=0.626;exitDx=0;exitDy=0;exitPerimeter=0;entryX=0.476;entryY=0.932;entryDx=0;entryDy=0;entryPerimeter=0;" edge="1" parent="1" source="tiuoFYLvW-MkzUnGiu4A-3" target="tiuoFYLvW-MkzUnGiu4A-15">
          <mxGeometry width="50" height="50" relative="1" as="geometry">
            <mxPoint x="190" y="170" as="sourcePoint" />
            <mxPoint x="240" y="120" as="targetPoint" />
          </mxGeometry>
        </mxCell>
        <mxCell id="tiuoFYLvW-MkzUnGiu4A-18" value="" style="shape=waypoint;sketch=0;fillStyle=solid;size=6;pointerEvents=1;points=[];fillColor=none;resizable=0;rotatable=0;perimeter=centerPerimeter;snapToPoint=1;" vertex="1" parent="1">
          <mxGeometry x="210" y="90" width="20" height="20" as="geometry" />
        </mxCell>
        <mxCell id="tiuoFYLvW-MkzUnGiu4A-19" value="" style="endArrow=none;html=1;rounded=0;entryX=0.702;entryY=0.948;entryDx=0;entryDy=0;entryPerimeter=0;" edge="1" parent="1" target="tiuoFYLvW-MkzUnGiu4A-18">
          <mxGeometry width="50" height="50" relative="1" as="geometry">
            <mxPoint x="190" y="130" as="sourcePoint" />
            <mxPoint x="170" y="110" as="targetPoint" />
          </mxGeometry>
        </mxCell>
        <mxCell id="tiuoFYLvW-MkzUnGiu4A-20" value="" style="endArrow=none;html=1;rounded=0;exitX=0.637;exitY=0.521;exitDx=0;exitDy=0;exitPerimeter=0;entryX=0.444;entryY=0.392;entryDx=0;entryDy=0;entryPerimeter=0;" edge="1" parent="1" source="tiuoFYLvW-MkzUnGiu4A-15" target="tiuoFYLvW-MkzUnGiu4A-18">
          <mxGeometry width="50" height="50" relative="1" as="geometry">
            <mxPoint x="140" y="140" as="sourcePoint" />
            <mxPoint x="170" y="110" as="targetPoint" />
          </mxGeometry>
        </mxCell>
        <mxCell id="tiuoFYLvW-MkzUnGiu4A-21" value="" style="endArrow=none;html=1;rounded=0;exitDx=0;exitDy=0;exitPerimeter=0;" edge="1" parent="1">
          <mxGeometry width="50" height="50" relative="1" as="geometry">
            <mxPoint x="220" y="160" as="sourcePoint" />
            <mxPoint x="220" y="160" as="targetPoint" />
          </mxGeometry>
        </mxCell>
        <mxCell id="tiuoFYLvW-MkzUnGiu4A-23" value="" style="endArrow=none;html=1;rounded=0;exitX=0.492;exitY=0.658;exitDx=0;exitDy=0;exitPerimeter=0;entryX=0.742;entryY=0.102;entryDx=0;entryDy=0;entryPerimeter=0;" edge="1" parent="1" source="tiuoFYLvW-MkzUnGiu4A-18">
          <mxGeometry width="50" height="50" relative="1" as="geometry">
            <mxPoint x="220" y="100" as="sourcePoint" />
            <mxPoint x="220" y="160" as="targetPoint" />
          </mxGeometry>
        </mxCell>
        <mxCell id="tiuoFYLvW-MkzUnGiu4A-24" value="" style="endArrow=none;html=1;rounded=0;" edge="1" parent="1">
          <mxGeometry width="50" height="50" relative="1" as="geometry">
            <mxPoint x="190" y="190" as="sourcePoint" />
            <mxPoint x="220" y="160" as="targetPoint" />
          </mxGeometry>
        </mxCell>
        <mxCell id="tiuoFYLvW-MkzUnGiu4A-25" value="\(011\)" style="text;html=1;strokeColor=none;fillColor=none;align=center;verticalAlign=middle;whiteSpace=wrap;rounded=0;" vertex="1" parent="1">
          <mxGeometry x="218" y="148" width="30" height="20" as="geometry" />
        </mxCell>
        <mxCell id="tiuoFYLvW-MkzUnGiu4A-26" value="\(111\)" style="text;html=1;strokeColor=none;fillColor=none;align=center;verticalAlign=middle;whiteSpace=wrap;rounded=0;" vertex="1" parent="1">
          <mxGeometry x="210" y="80" width="20" height="20" as="geometry" />
        </mxCell>
        <mxCell id="tiuoFYLvW-MkzUnGiu4A-27" value="\(110\)" style="text;html=1;strokeColor=none;fillColor=none;align=center;verticalAlign=middle;whiteSpace=wrap;rounded=0;" vertex="1" parent="1">
          <mxGeometry x="150" y="80" width="20" height="20" as="geometry" />
        </mxCell>
        <mxCell id="tiuoFYLvW-MkzUnGiu4A-28" value="" style="shape=waypoint;sketch=0;fillStyle=solid;size=6;pointerEvents=1;points=[];fillColor=none;resizable=0;rotatable=0;perimeter=centerPerimeter;snapToPoint=1;" vertex="1" parent="1">
          <mxGeometry x="150" y="150" width="20" height="20" as="geometry" />
        </mxCell>
        <mxCell id="tiuoFYLvW-MkzUnGiu4A-29" style="orthogonalLoop=1;jettySize=auto;html=1;endArrow=none;endFill=0;rounded=0;strokeColor=default;exitX=0.597;exitY=0.948;exitDx=0;exitDy=0;exitPerimeter=0;jumpStyle=gap;entryX=0.5;entryY=0.5;entryDx=0;entryDy=0;entryPerimeter=0;" edge="1" parent="1" source="tiuoFYLvW-MkzUnGiu4A-15" target="tiuoFYLvW-MkzUnGiu4A-28">
          <mxGeometry relative="1" as="geometry">
            <mxPoint x="200" y="140" as="sourcePoint" />
            <mxPoint x="200" y="200" as="targetPoint" />
          </mxGeometry>
        </mxCell>
        <mxCell id="tiuoFYLvW-MkzUnGiu4A-30" style="orthogonalLoop=1;jettySize=auto;html=1;endArrow=none;endFill=0;rounded=0;strokeColor=default;exitX=-0.024;exitY=0.666;exitDx=0;exitDy=0;exitPerimeter=0;jumpStyle=gap;entryX=0.927;entryY=0.319;entryDx=0;entryDy=0;entryPerimeter=0;" edge="1" parent="1" source="tiuoFYLvW-MkzUnGiu4A-28" target="tiuoFYLvW-MkzUnGiu4A-5">
          <mxGeometry relative="1" as="geometry">
            <mxPoint x="170" y="110" as="sourcePoint" />
            <mxPoint x="170" y="170" as="targetPoint" />
          </mxGeometry>
        </mxCell>
        <mxCell id="tiuoFYLvW-MkzUnGiu4A-31" style="orthogonalLoop=1;jettySize=auto;html=1;endArrow=none;endFill=0;rounded=0;strokeColor=default;jumpStyle=gap;entryX=0.96;entryY=0.682;entryDx=0;entryDy=0;entryPerimeter=0;" edge="1" parent="1" target="tiuoFYLvW-MkzUnGiu4A-28">
          <mxGeometry relative="1" as="geometry">
            <mxPoint x="220" y="160" as="sourcePoint" />
            <mxPoint x="140" y="200" as="targetPoint" />
          </mxGeometry>
        </mxCell>
        <mxCell id="tiuoFYLvW-MkzUnGiu4A-32" value="\(010\)" style="text;html=1;strokeColor=none;fillColor=none;align=center;verticalAlign=middle;whiteSpace=wrap;rounded=0;" vertex="1" parent="1">
          <mxGeometry x="137" y="144" width="20" height="20" as="geometry" />
        </mxCell>
        <mxCell id="tiuoFYLvW-MkzUnGiu4A-59" style="edgeStyle=orthogonalEdgeStyle;rounded=0;orthogonalLoop=1;jettySize=auto;html=1;endArrow=none;endFill=0;" edge="1" source="tiuoFYLvW-MkzUnGiu4A-61" parent="1">
          <mxGeometry relative="1" as="geometry">
            <mxPoint x="370" y="450" as="targetPoint" />
          </mxGeometry>
        </mxCell>
        <mxCell id="tiuoFYLvW-MkzUnGiu4A-60" style="edgeStyle=orthogonalEdgeStyle;rounded=0;orthogonalLoop=1;jettySize=auto;html=1;entryX=0.506;entryY=0.079;entryDx=0;entryDy=0;entryPerimeter=0;endArrow=none;endFill=0;" edge="1" source="tiuoFYLvW-MkzUnGiu4A-61" parent="1">
          <mxGeometry relative="1" as="geometry">
            <mxPoint x="310" y="510" as="targetPoint" />
          </mxGeometry>
        </mxCell>
        <mxCell id="tiuoFYLvW-MkzUnGiu4A-61" value="" style="shape=waypoint;sketch=0;fillStyle=solid;size=6;pointerEvents=1;points=[];fillColor=none;resizable=0;rotatable=0;perimeter=centerPerimeter;snapToPoint=1;" vertex="1" parent="1">
          <mxGeometry x="300" y="440" width="20" height="20" as="geometry" />
        </mxCell>
        <mxCell id="tiuoFYLvW-MkzUnGiu4A-62" style="edgeStyle=orthogonalEdgeStyle;rounded=0;orthogonalLoop=1;jettySize=auto;html=1;endArrow=none;endFill=0;" edge="1" parent="1">
          <mxGeometry relative="1" as="geometry">
            <mxPoint x="310" y="510" as="sourcePoint" />
            <mxPoint x="370" y="510" as="targetPoint" />
          </mxGeometry>
        </mxCell>
        <mxCell id="tiuoFYLvW-MkzUnGiu4A-64" style="orthogonalLoop=1;jettySize=auto;html=1;endArrow=none;endFill=0;rounded=0;strokeColor=default;" edge="1" parent="1">
          <mxGeometry relative="1" as="geometry">
            <mxPoint x="370" y="450" as="sourcePoint" />
            <mxPoint x="370" y="510" as="targetPoint" />
          </mxGeometry>
        </mxCell>
        <mxCell id="tiuoFYLvW-MkzUnGiu4A-65" value="\(100\)" style="text;html=1;strokeColor=none;fillColor=none;align=center;verticalAlign=middle;whiteSpace=wrap;rounded=0;" vertex="1" parent="1">
          <mxGeometry x="280" y="440" width="25" height="20" as="geometry" />
        </mxCell>
        <mxCell id="tiuoFYLvW-MkzUnGiu4A-66" value="\(10 1\)" style="text;html=1;strokeColor=none;fillColor=none;align=center;verticalAlign=middle;whiteSpace=wrap;rounded=0;" vertex="1" parent="1">
          <mxGeometry x="350" y="430" width="20" height="20" as="geometry" />
        </mxCell>
        <mxCell id="tiuoFYLvW-MkzUnGiu4A-67" value="\(000\)" style="text;html=1;strokeColor=none;fillColor=none;align=center;verticalAlign=middle;whiteSpace=wrap;rounded=0;" vertex="1" parent="1">
          <mxGeometry x="299" y="510" width="20" height="20" as="geometry" />
        </mxCell>
        <mxCell id="tiuoFYLvW-MkzUnGiu4A-68" value="\(001\)" style="text;html=1;strokeColor=none;fillColor=none;align=center;verticalAlign=middle;whiteSpace=wrap;rounded=0;" vertex="1" parent="1">
          <mxGeometry x="360" y="509" width="20" height="20" as="geometry" />
        </mxCell>
        <mxCell id="tiuoFYLvW-MkzUnGiu4A-69" value="" style="shape=waypoint;sketch=0;fillStyle=solid;size=6;pointerEvents=1;points=[];fillColor=none;resizable=0;rotatable=0;perimeter=centerPerimeter;snapToPoint=1;" vertex="1" parent="1">
          <mxGeometry x="330" y="410" width="20" height="20" as="geometry" />
        </mxCell>
        <mxCell id="tiuoFYLvW-MkzUnGiu4A-70" value="" style="endArrow=none;html=1;rounded=0;exitX=0.524;exitY=0.626;exitDx=0;exitDy=0;exitPerimeter=0;entryX=0.476;entryY=0.932;entryDx=0;entryDy=0;entryPerimeter=0;" edge="1" source="tiuoFYLvW-MkzUnGiu4A-61" target="tiuoFYLvW-MkzUnGiu4A-69" parent="1">
          <mxGeometry width="50" height="50" relative="1" as="geometry">
            <mxPoint x="370" y="490" as="sourcePoint" />
            <mxPoint x="420" y="440" as="targetPoint" />
          </mxGeometry>
        </mxCell>
        <mxCell id="tiuoFYLvW-MkzUnGiu4A-71" value="" style="shape=waypoint;sketch=0;fillStyle=solid;size=6;pointerEvents=1;points=[];fillColor=none;resizable=0;rotatable=0;perimeter=centerPerimeter;snapToPoint=1;" vertex="1" parent="1">
          <mxGeometry x="390" y="410" width="20" height="20" as="geometry" />
        </mxCell>
        <mxCell id="tiuoFYLvW-MkzUnGiu4A-72" value="" style="endArrow=none;html=1;rounded=0;entryX=0.702;entryY=0.948;entryDx=0;entryDy=0;entryPerimeter=0;" edge="1" target="tiuoFYLvW-MkzUnGiu4A-71" parent="1">
          <mxGeometry width="50" height="50" relative="1" as="geometry">
            <mxPoint x="370" y="450" as="sourcePoint" />
            <mxPoint x="350" y="430" as="targetPoint" />
          </mxGeometry>
        </mxCell>
        <mxCell id="tiuoFYLvW-MkzUnGiu4A-73" value="" style="endArrow=none;html=1;rounded=0;exitX=0.637;exitY=0.521;exitDx=0;exitDy=0;exitPerimeter=0;entryX=0.444;entryY=0.392;entryDx=0;entryDy=0;entryPerimeter=0;" edge="1" source="tiuoFYLvW-MkzUnGiu4A-69" target="tiuoFYLvW-MkzUnGiu4A-71" parent="1">
          <mxGeometry width="50" height="50" relative="1" as="geometry">
            <mxPoint x="320" y="460" as="sourcePoint" />
            <mxPoint x="350" y="430" as="targetPoint" />
          </mxGeometry>
        </mxCell>
        <mxCell id="tiuoFYLvW-MkzUnGiu4A-74" value="" style="endArrow=none;html=1;rounded=0;exitDx=0;exitDy=0;exitPerimeter=0;" edge="1" parent="1">
          <mxGeometry width="50" height="50" relative="1" as="geometry">
            <mxPoint x="400" y="480" as="sourcePoint" />
            <mxPoint x="400" y="480" as="targetPoint" />
          </mxGeometry>
        </mxCell>
        <mxCell id="tiuoFYLvW-MkzUnGiu4A-75" value="" style="endArrow=none;html=1;rounded=0;exitX=0.492;exitY=0.658;exitDx=0;exitDy=0;exitPerimeter=0;entryX=0.742;entryY=0.102;entryDx=0;entryDy=0;entryPerimeter=0;" edge="1" source="tiuoFYLvW-MkzUnGiu4A-71" parent="1">
          <mxGeometry width="50" height="50" relative="1" as="geometry">
            <mxPoint x="400" y="420" as="sourcePoint" />
            <mxPoint x="400" y="480" as="targetPoint" />
          </mxGeometry>
        </mxCell>
        <mxCell id="tiuoFYLvW-MkzUnGiu4A-76" value="" style="endArrow=none;html=1;rounded=0;" edge="1" parent="1">
          <mxGeometry width="50" height="50" relative="1" as="geometry">
            <mxPoint x="370" y="510" as="sourcePoint" />
            <mxPoint x="400" y="480" as="targetPoint" />
          </mxGeometry>
        </mxCell>
        <mxCell id="tiuoFYLvW-MkzUnGiu4A-77" value="\(011\)" style="text;html=1;strokeColor=none;fillColor=none;align=center;verticalAlign=middle;whiteSpace=wrap;rounded=0;" vertex="1" parent="1">
          <mxGeometry x="400" y="468" width="30" height="20" as="geometry" />
        </mxCell>
        <mxCell id="tiuoFYLvW-MkzUnGiu4A-78" value="\(111\)" style="text;html=1;strokeColor=none;fillColor=none;align=center;verticalAlign=middle;whiteSpace=wrap;rounded=0;" vertex="1" parent="1">
          <mxGeometry x="390" y="400" width="20" height="20" as="geometry" />
        </mxCell>
        <mxCell id="tiuoFYLvW-MkzUnGiu4A-79" value="\(110\)" style="text;html=1;strokeColor=none;fillColor=none;align=center;verticalAlign=middle;whiteSpace=wrap;rounded=0;" vertex="1" parent="1">
          <mxGeometry x="330" y="400" width="20" height="20" as="geometry" />
        </mxCell>
        <mxCell id="tiuoFYLvW-MkzUnGiu4A-81" style="orthogonalLoop=1;jettySize=auto;html=1;endArrow=none;endFill=0;rounded=0;strokeColor=default;exitX=0.597;exitY=0.948;exitDx=0;exitDy=0;exitPerimeter=0;jumpStyle=gap;entryX=0.5;entryY=0.5;entryDx=0;entryDy=0;entryPerimeter=0;" edge="1" source="tiuoFYLvW-MkzUnGiu4A-69" parent="1">
          <mxGeometry relative="1" as="geometry">
            <mxPoint x="380" y="460" as="sourcePoint" />
            <mxPoint x="340" y="480" as="targetPoint" />
          </mxGeometry>
        </mxCell>
        <mxCell id="tiuoFYLvW-MkzUnGiu4A-82" style="orthogonalLoop=1;jettySize=auto;html=1;endArrow=none;endFill=0;rounded=0;strokeColor=default;exitX=-0.024;exitY=0.666;exitDx=0;exitDy=0;exitPerimeter=0;jumpStyle=gap;entryX=0.927;entryY=0.319;entryDx=0;entryDy=0;entryPerimeter=0;" edge="1" parent="1">
          <mxGeometry relative="1" as="geometry">
            <mxPoint x="340" y="480" as="sourcePoint" />
            <mxPoint x="310" y="510" as="targetPoint" />
          </mxGeometry>
        </mxCell>
        <mxCell id="tiuoFYLvW-MkzUnGiu4A-83" style="orthogonalLoop=1;jettySize=auto;html=1;endArrow=none;endFill=0;rounded=0;strokeColor=default;jumpStyle=gap;entryX=0.96;entryY=0.682;entryDx=0;entryDy=0;entryPerimeter=0;" edge="1" parent="1">
          <mxGeometry relative="1" as="geometry">
            <mxPoint x="400" y="480" as="sourcePoint" />
            <mxPoint x="340" y="480" as="targetPoint" />
          </mxGeometry>
        </mxCell>
        <mxCell id="tiuoFYLvW-MkzUnGiu4A-84" value="\(010\)" style="text;html=1;strokeColor=none;fillColor=none;align=center;verticalAlign=middle;whiteSpace=wrap;rounded=0;" vertex="1" parent="1">
          <mxGeometry x="317" y="464" width="20" height="20" as="geometry" />
        </mxCell>
        <mxCell id="tiuoFYLvW-MkzUnGiu4A-85" value="" style="shape=waypoint;sketch=0;fillStyle=solid;size=6;pointerEvents=1;points=[];fillColor=none;resizable=0;rotatable=0;perimeter=centerPerimeter;snapToPoint=1;" vertex="1" parent="1">
          <mxGeometry x="360" y="440" width="20" height="20" as="geometry" />
        </mxCell>
        <mxCell id="tiuoFYLvW-MkzUnGiu4A-86" value="" style="shape=waypoint;sketch=0;fillStyle=solid;size=6;pointerEvents=1;points=[];fillColor=none;resizable=0;rotatable=0;perimeter=centerPerimeter;snapToPoint=1;" vertex="1" parent="1">
          <mxGeometry x="390" y="470" width="20" height="20" as="geometry" />
        </mxCell>
        <mxCell id="tiuoFYLvW-MkzUnGiu4A-87" style="edgeStyle=orthogonalEdgeStyle;rounded=0;orthogonalLoop=1;jettySize=auto;html=1;endArrow=none;endFill=0;" edge="1" source="tiuoFYLvW-MkzUnGiu4A-89" parent="1">
          <mxGeometry relative="1" as="geometry">
            <mxPoint x="370" y="290" as="targetPoint" />
          </mxGeometry>
        </mxCell>
        <mxCell id="tiuoFYLvW-MkzUnGiu4A-88" style="edgeStyle=orthogonalEdgeStyle;rounded=0;orthogonalLoop=1;jettySize=auto;html=1;entryX=0.506;entryY=0.079;entryDx=0;entryDy=0;entryPerimeter=0;endArrow=none;endFill=0;" edge="1" source="tiuoFYLvW-MkzUnGiu4A-89" parent="1">
          <mxGeometry relative="1" as="geometry">
            <mxPoint x="310" y="350" as="targetPoint" />
          </mxGeometry>
        </mxCell>
        <mxCell id="tiuoFYLvW-MkzUnGiu4A-89" value="" style="shape=waypoint;sketch=0;fillStyle=solid;size=6;pointerEvents=1;points=[];fillColor=none;resizable=0;rotatable=0;perimeter=centerPerimeter;snapToPoint=1;" vertex="1" parent="1">
          <mxGeometry x="300" y="280" width="20" height="20" as="geometry" />
        </mxCell>
        <mxCell id="tiuoFYLvW-MkzUnGiu4A-90" style="edgeStyle=orthogonalEdgeStyle;rounded=0;orthogonalLoop=1;jettySize=auto;html=1;endArrow=none;endFill=0;" edge="1" parent="1">
          <mxGeometry relative="1" as="geometry">
            <mxPoint x="310" y="350" as="sourcePoint" />
            <mxPoint x="370" y="350" as="targetPoint" />
          </mxGeometry>
        </mxCell>
        <mxCell id="tiuoFYLvW-MkzUnGiu4A-91" style="orthogonalLoop=1;jettySize=auto;html=1;endArrow=none;endFill=0;rounded=0;strokeColor=default;" edge="1" parent="1">
          <mxGeometry relative="1" as="geometry">
            <mxPoint x="370" y="290" as="sourcePoint" />
            <mxPoint x="370" y="350" as="targetPoint" />
          </mxGeometry>
        </mxCell>
        <mxCell id="tiuoFYLvW-MkzUnGiu4A-92" value="\(100\)" style="text;html=1;strokeColor=none;fillColor=none;align=center;verticalAlign=middle;whiteSpace=wrap;rounded=0;" vertex="1" parent="1">
          <mxGeometry x="280" y="280" width="25" height="20" as="geometry" />
        </mxCell>
        <mxCell id="tiuoFYLvW-MkzUnGiu4A-93" value="\(10 1\)" style="text;html=1;strokeColor=none;fillColor=none;align=center;verticalAlign=middle;whiteSpace=wrap;rounded=0;" vertex="1" parent="1">
          <mxGeometry x="350" y="270" width="20" height="20" as="geometry" />
        </mxCell>
        <mxCell id="tiuoFYLvW-MkzUnGiu4A-94" value="\(000\)" style="text;html=1;strokeColor=none;fillColor=none;align=center;verticalAlign=middle;whiteSpace=wrap;rounded=0;" vertex="1" parent="1">
          <mxGeometry x="299" y="350" width="20" height="20" as="geometry" />
        </mxCell>
        <mxCell id="tiuoFYLvW-MkzUnGiu4A-95" value="\(001\)" style="text;html=1;strokeColor=none;fillColor=none;align=center;verticalAlign=middle;whiteSpace=wrap;rounded=0;" vertex="1" parent="1">
          <mxGeometry x="360" y="349" width="20" height="20" as="geometry" />
        </mxCell>
        <mxCell id="tiuoFYLvW-MkzUnGiu4A-96" value="" style="shape=waypoint;sketch=0;fillStyle=solid;size=6;pointerEvents=1;points=[];fillColor=none;resizable=0;rotatable=0;perimeter=centerPerimeter;snapToPoint=1;" vertex="1" parent="1">
          <mxGeometry x="330" y="250" width="20" height="20" as="geometry" />
        </mxCell>
        <mxCell id="tiuoFYLvW-MkzUnGiu4A-97" value="" style="endArrow=none;html=1;rounded=0;exitX=0.524;exitY=0.626;exitDx=0;exitDy=0;exitPerimeter=0;entryX=0.476;entryY=0.932;entryDx=0;entryDy=0;entryPerimeter=0;" edge="1" source="tiuoFYLvW-MkzUnGiu4A-89" target="tiuoFYLvW-MkzUnGiu4A-96" parent="1">
          <mxGeometry width="50" height="50" relative="1" as="geometry">
            <mxPoint x="370" y="330" as="sourcePoint" />
            <mxPoint x="420" y="280" as="targetPoint" />
          </mxGeometry>
        </mxCell>
        <mxCell id="tiuoFYLvW-MkzUnGiu4A-98" value="" style="shape=waypoint;sketch=0;fillStyle=solid;size=6;pointerEvents=1;points=[];fillColor=none;resizable=0;rotatable=0;perimeter=centerPerimeter;snapToPoint=1;" vertex="1" parent="1">
          <mxGeometry x="360" y="340" width="20" height="20" as="geometry" />
        </mxCell>
        <mxCell id="tiuoFYLvW-MkzUnGiu4A-99" value="" style="endArrow=none;html=1;rounded=0;" edge="1" parent="1">
          <mxGeometry width="50" height="50" relative="1" as="geometry">
            <mxPoint x="370" y="290" as="sourcePoint" />
            <mxPoint x="400" y="260" as="targetPoint" />
          </mxGeometry>
        </mxCell>
        <mxCell id="tiuoFYLvW-MkzUnGiu4A-100" value="" style="endArrow=none;html=1;rounded=0;exitX=0.637;exitY=0.521;exitDx=0;exitDy=0;exitPerimeter=0;" edge="1" source="tiuoFYLvW-MkzUnGiu4A-96" parent="1">
          <mxGeometry width="50" height="50" relative="1" as="geometry">
            <mxPoint x="320" y="300" as="sourcePoint" />
            <mxPoint x="400" y="260" as="targetPoint" />
          </mxGeometry>
        </mxCell>
        <mxCell id="tiuoFYLvW-MkzUnGiu4A-101" value="" style="endArrow=none;html=1;rounded=0;exitDx=0;exitDy=0;exitPerimeter=0;" edge="1" parent="1">
          <mxGeometry width="50" height="50" relative="1" as="geometry">
            <mxPoint x="400" y="320" as="sourcePoint" />
            <mxPoint x="400" y="320" as="targetPoint" />
          </mxGeometry>
        </mxCell>
        <mxCell id="tiuoFYLvW-MkzUnGiu4A-102" value="" style="endArrow=none;html=1;rounded=0;entryX=0.742;entryY=0.102;entryDx=0;entryDy=0;entryPerimeter=0;" edge="1" parent="1">
          <mxGeometry width="50" height="50" relative="1" as="geometry">
            <mxPoint x="400" y="260" as="sourcePoint" />
            <mxPoint x="400" y="320" as="targetPoint" />
          </mxGeometry>
        </mxCell>
        <mxCell id="tiuoFYLvW-MkzUnGiu4A-103" value="" style="endArrow=none;html=1;rounded=0;" edge="1" parent="1">
          <mxGeometry width="50" height="50" relative="1" as="geometry">
            <mxPoint x="370" y="350" as="sourcePoint" />
            <mxPoint x="400" y="320" as="targetPoint" />
          </mxGeometry>
        </mxCell>
        <mxCell id="tiuoFYLvW-MkzUnGiu4A-104" value="\(011\)" style="text;html=1;strokeColor=none;fillColor=none;align=center;verticalAlign=middle;whiteSpace=wrap;rounded=0;" vertex="1" parent="1">
          <mxGeometry x="400" y="308" width="30" height="20" as="geometry" />
        </mxCell>
        <mxCell id="tiuoFYLvW-MkzUnGiu4A-105" value="\(111\)" style="text;html=1;strokeColor=none;fillColor=none;align=center;verticalAlign=middle;whiteSpace=wrap;rounded=0;" vertex="1" parent="1">
          <mxGeometry x="390" y="240" width="20" height="20" as="geometry" />
        </mxCell>
        <mxCell id="tiuoFYLvW-MkzUnGiu4A-106" value="\(110\)" style="text;html=1;strokeColor=none;fillColor=none;align=center;verticalAlign=middle;whiteSpace=wrap;rounded=0;" vertex="1" parent="1">
          <mxGeometry x="330" y="240" width="20" height="20" as="geometry" />
        </mxCell>
        <mxCell id="tiuoFYLvW-MkzUnGiu4A-107" style="orthogonalLoop=1;jettySize=auto;html=1;endArrow=none;endFill=0;rounded=0;strokeColor=default;exitX=0.597;exitY=0.948;exitDx=0;exitDy=0;exitPerimeter=0;jumpStyle=gap;entryX=0.5;entryY=0.5;entryDx=0;entryDy=0;entryPerimeter=0;" edge="1" source="tiuoFYLvW-MkzUnGiu4A-96" parent="1">
          <mxGeometry relative="1" as="geometry">
            <mxPoint x="380" y="300" as="sourcePoint" />
            <mxPoint x="340" y="320" as="targetPoint" />
          </mxGeometry>
        </mxCell>
        <mxCell id="tiuoFYLvW-MkzUnGiu4A-108" style="orthogonalLoop=1;jettySize=auto;html=1;endArrow=none;endFill=0;rounded=0;strokeColor=default;exitX=-0.024;exitY=0.666;exitDx=0;exitDy=0;exitPerimeter=0;jumpStyle=gap;entryX=0.927;entryY=0.319;entryDx=0;entryDy=0;entryPerimeter=0;" edge="1" parent="1">
          <mxGeometry relative="1" as="geometry">
            <mxPoint x="340" y="320" as="sourcePoint" />
            <mxPoint x="310" y="350" as="targetPoint" />
          </mxGeometry>
        </mxCell>
        <mxCell id="tiuoFYLvW-MkzUnGiu4A-109" style="orthogonalLoop=1;jettySize=auto;html=1;endArrow=none;endFill=0;rounded=0;strokeColor=default;jumpStyle=gap;entryX=0.96;entryY=0.682;entryDx=0;entryDy=0;entryPerimeter=0;" edge="1" parent="1">
          <mxGeometry relative="1" as="geometry">
            <mxPoint x="400" y="320" as="sourcePoint" />
            <mxPoint x="340" y="320" as="targetPoint" />
          </mxGeometry>
        </mxCell>
        <mxCell id="tiuoFYLvW-MkzUnGiu4A-110" value="\(010\)" style="text;html=1;strokeColor=none;fillColor=none;align=center;verticalAlign=middle;whiteSpace=wrap;rounded=0;" vertex="1" parent="1">
          <mxGeometry x="317" y="304" width="20" height="20" as="geometry" />
        </mxCell>
        <mxCell id="tiuoFYLvW-MkzUnGiu4A-111" value="" style="shape=waypoint;sketch=0;fillStyle=solid;size=6;pointerEvents=1;points=[];fillColor=none;resizable=0;rotatable=0;perimeter=centerPerimeter;snapToPoint=1;" vertex="1" parent="1">
          <mxGeometry x="360" y="280" width="20" height="20" as="geometry" />
        </mxCell>
        <mxCell id="tiuoFYLvW-MkzUnGiu4A-112" value="" style="shape=waypoint;sketch=0;fillStyle=solid;size=6;pointerEvents=1;points=[];fillColor=none;resizable=0;rotatable=0;perimeter=centerPerimeter;snapToPoint=1;" vertex="1" parent="1">
          <mxGeometry x="390" y="310" width="20" height="20" as="geometry" />
        </mxCell>
        <mxCell id="tiuoFYLvW-MkzUnGiu4A-113" value="" style="shape=waypoint;sketch=0;fillStyle=solid;size=6;pointerEvents=1;points=[];fillColor=none;resizable=0;rotatable=0;perimeter=centerPerimeter;snapToPoint=1;" vertex="1" parent="1">
          <mxGeometry x="330" y="310" width="20" height="20" as="geometry" />
        </mxCell>
        <mxCell id="tiuoFYLvW-MkzUnGiu4A-168" style="edgeStyle=orthogonalEdgeStyle;rounded=0;orthogonalLoop=1;jettySize=auto;html=1;endArrow=none;endFill=0;" edge="1" source="tiuoFYLvW-MkzUnGiu4A-170" parent="1">
          <mxGeometry relative="1" as="geometry">
            <mxPoint x="370" y="130" as="targetPoint" />
          </mxGeometry>
        </mxCell>
        <mxCell id="tiuoFYLvW-MkzUnGiu4A-169" style="edgeStyle=orthogonalEdgeStyle;rounded=0;orthogonalLoop=1;jettySize=auto;html=1;entryX=0.506;entryY=0.079;entryDx=0;entryDy=0;entryPerimeter=0;endArrow=none;endFill=0;" edge="1" source="tiuoFYLvW-MkzUnGiu4A-170" parent="1">
          <mxGeometry relative="1" as="geometry">
            <mxPoint x="310" y="190" as="targetPoint" />
          </mxGeometry>
        </mxCell>
        <mxCell id="tiuoFYLvW-MkzUnGiu4A-170" value="" style="shape=waypoint;sketch=0;fillStyle=solid;size=6;pointerEvents=1;points=[];fillColor=none;resizable=0;rotatable=0;perimeter=centerPerimeter;snapToPoint=1;" vertex="1" parent="1">
          <mxGeometry x="300" y="120" width="20" height="20" as="geometry" />
        </mxCell>
        <mxCell id="tiuoFYLvW-MkzUnGiu4A-171" style="edgeStyle=orthogonalEdgeStyle;rounded=0;orthogonalLoop=1;jettySize=auto;html=1;endArrow=none;endFill=0;" edge="1" parent="1">
          <mxGeometry relative="1" as="geometry">
            <mxPoint x="310" y="190" as="sourcePoint" />
            <mxPoint x="370" y="190" as="targetPoint" />
          </mxGeometry>
        </mxCell>
        <mxCell id="tiuoFYLvW-MkzUnGiu4A-172" style="orthogonalLoop=1;jettySize=auto;html=1;endArrow=none;endFill=0;rounded=0;strokeColor=default;" edge="1" parent="1">
          <mxGeometry relative="1" as="geometry">
            <mxPoint x="370" y="130" as="sourcePoint" />
            <mxPoint x="370" y="190" as="targetPoint" />
          </mxGeometry>
        </mxCell>
        <mxCell id="tiuoFYLvW-MkzUnGiu4A-173" value="\(100\)" style="text;html=1;strokeColor=none;fillColor=none;align=center;verticalAlign=middle;whiteSpace=wrap;rounded=0;" vertex="1" parent="1">
          <mxGeometry x="280" y="120" width="25" height="20" as="geometry" />
        </mxCell>
        <mxCell id="tiuoFYLvW-MkzUnGiu4A-174" value="\(10 1\)" style="text;html=1;strokeColor=none;fillColor=none;align=center;verticalAlign=middle;whiteSpace=wrap;rounded=0;" vertex="1" parent="1">
          <mxGeometry x="350" y="110" width="20" height="20" as="geometry" />
        </mxCell>
        <mxCell id="tiuoFYLvW-MkzUnGiu4A-175" value="\(000\)" style="text;html=1;strokeColor=none;fillColor=none;align=center;verticalAlign=middle;whiteSpace=wrap;rounded=0;" vertex="1" parent="1">
          <mxGeometry x="299" y="190" width="20" height="20" as="geometry" />
        </mxCell>
        <mxCell id="tiuoFYLvW-MkzUnGiu4A-176" value="\(001\)" style="text;html=1;strokeColor=none;fillColor=none;align=center;verticalAlign=middle;whiteSpace=wrap;rounded=0;" vertex="1" parent="1">
          <mxGeometry x="360" y="189" width="20" height="20" as="geometry" />
        </mxCell>
        <mxCell id="tiuoFYLvW-MkzUnGiu4A-177" value="" style="shape=waypoint;sketch=0;fillStyle=solid;size=6;pointerEvents=1;points=[];fillColor=none;resizable=0;rotatable=0;perimeter=centerPerimeter;snapToPoint=1;" vertex="1" parent="1">
          <mxGeometry x="330" y="90" width="20" height="20" as="geometry" />
        </mxCell>
        <mxCell id="tiuoFYLvW-MkzUnGiu4A-178" value="" style="endArrow=none;html=1;rounded=0;exitX=0.524;exitY=0.626;exitDx=0;exitDy=0;exitPerimeter=0;entryX=0.476;entryY=0.932;entryDx=0;entryDy=0;entryPerimeter=0;" edge="1" source="tiuoFYLvW-MkzUnGiu4A-170" target="tiuoFYLvW-MkzUnGiu4A-177" parent="1">
          <mxGeometry width="50" height="50" relative="1" as="geometry">
            <mxPoint x="370" y="170" as="sourcePoint" />
            <mxPoint x="420" y="120" as="targetPoint" />
          </mxGeometry>
        </mxCell>
        <mxCell id="tiuoFYLvW-MkzUnGiu4A-179" value="" style="shape=waypoint;sketch=0;fillStyle=solid;size=6;pointerEvents=1;points=[];fillColor=none;resizable=0;rotatable=0;perimeter=centerPerimeter;snapToPoint=1;" vertex="1" parent="1">
          <mxGeometry x="360" y="180" width="20" height="20" as="geometry" />
        </mxCell>
        <mxCell id="tiuoFYLvW-MkzUnGiu4A-180" value="" style="endArrow=none;html=1;rounded=0;" edge="1" parent="1">
          <mxGeometry width="50" height="50" relative="1" as="geometry">
            <mxPoint x="370" y="130" as="sourcePoint" />
            <mxPoint x="400" y="100" as="targetPoint" />
          </mxGeometry>
        </mxCell>
        <mxCell id="tiuoFYLvW-MkzUnGiu4A-181" value="" style="endArrow=none;html=1;rounded=0;exitX=0.637;exitY=0.521;exitDx=0;exitDy=0;exitPerimeter=0;" edge="1" source="tiuoFYLvW-MkzUnGiu4A-177" parent="1">
          <mxGeometry width="50" height="50" relative="1" as="geometry">
            <mxPoint x="320" y="140" as="sourcePoint" />
            <mxPoint x="400" y="100" as="targetPoint" />
          </mxGeometry>
        </mxCell>
        <mxCell id="tiuoFYLvW-MkzUnGiu4A-182" value="" style="endArrow=none;html=1;rounded=0;exitDx=0;exitDy=0;exitPerimeter=0;" edge="1" parent="1">
          <mxGeometry width="50" height="50" relative="1" as="geometry">
            <mxPoint x="400" y="160" as="sourcePoint" />
            <mxPoint x="400" y="160" as="targetPoint" />
          </mxGeometry>
        </mxCell>
        <mxCell id="tiuoFYLvW-MkzUnGiu4A-183" value="" style="endArrow=none;html=1;rounded=0;entryX=0.742;entryY=0.102;entryDx=0;entryDy=0;entryPerimeter=0;" edge="1" parent="1">
          <mxGeometry width="50" height="50" relative="1" as="geometry">
            <mxPoint x="400" y="100" as="sourcePoint" />
            <mxPoint x="400" y="160" as="targetPoint" />
          </mxGeometry>
        </mxCell>
        <mxCell id="tiuoFYLvW-MkzUnGiu4A-184" value="" style="endArrow=none;html=1;rounded=0;" edge="1" parent="1">
          <mxGeometry width="50" height="50" relative="1" as="geometry">
            <mxPoint x="370" y="190" as="sourcePoint" />
            <mxPoint x="400" y="160" as="targetPoint" />
          </mxGeometry>
        </mxCell>
        <mxCell id="tiuoFYLvW-MkzUnGiu4A-185" value="\(011\)" style="text;html=1;strokeColor=none;fillColor=none;align=center;verticalAlign=middle;whiteSpace=wrap;rounded=0;" vertex="1" parent="1">
          <mxGeometry x="400" y="148" width="30" height="20" as="geometry" />
        </mxCell>
        <mxCell id="tiuoFYLvW-MkzUnGiu4A-186" value="\(111\)" style="text;html=1;strokeColor=none;fillColor=none;align=center;verticalAlign=middle;whiteSpace=wrap;rounded=0;" vertex="1" parent="1">
          <mxGeometry x="390" y="80" width="20" height="20" as="geometry" />
        </mxCell>
        <mxCell id="tiuoFYLvW-MkzUnGiu4A-187" value="\(110\)" style="text;html=1;strokeColor=none;fillColor=none;align=center;verticalAlign=middle;whiteSpace=wrap;rounded=0;" vertex="1" parent="1">
          <mxGeometry x="330" y="80" width="20" height="20" as="geometry" />
        </mxCell>
        <mxCell id="tiuoFYLvW-MkzUnGiu4A-188" style="orthogonalLoop=1;jettySize=auto;html=1;endArrow=none;endFill=0;rounded=0;strokeColor=default;exitX=0.597;exitY=0.948;exitDx=0;exitDy=0;exitPerimeter=0;jumpStyle=gap;entryX=0.5;entryY=0.5;entryDx=0;entryDy=0;entryPerimeter=0;" edge="1" source="tiuoFYLvW-MkzUnGiu4A-177" parent="1">
          <mxGeometry relative="1" as="geometry">
            <mxPoint x="380" y="140" as="sourcePoint" />
            <mxPoint x="340" y="160" as="targetPoint" />
          </mxGeometry>
        </mxCell>
        <mxCell id="tiuoFYLvW-MkzUnGiu4A-189" style="orthogonalLoop=1;jettySize=auto;html=1;endArrow=none;endFill=0;rounded=0;strokeColor=default;exitX=-0.024;exitY=0.666;exitDx=0;exitDy=0;exitPerimeter=0;jumpStyle=gap;entryX=0.927;entryY=0.319;entryDx=0;entryDy=0;entryPerimeter=0;" edge="1" parent="1">
          <mxGeometry relative="1" as="geometry">
            <mxPoint x="340" y="160" as="sourcePoint" />
            <mxPoint x="310" y="190" as="targetPoint" />
          </mxGeometry>
        </mxCell>
        <mxCell id="tiuoFYLvW-MkzUnGiu4A-190" style="orthogonalLoop=1;jettySize=auto;html=1;endArrow=none;endFill=0;rounded=0;strokeColor=default;jumpStyle=gap;entryX=0.96;entryY=0.682;entryDx=0;entryDy=0;entryPerimeter=0;" edge="1" parent="1">
          <mxGeometry relative="1" as="geometry">
            <mxPoint x="400" y="160" as="sourcePoint" />
            <mxPoint x="340" y="160" as="targetPoint" />
          </mxGeometry>
        </mxCell>
        <mxCell id="tiuoFYLvW-MkzUnGiu4A-191" value="\(010\)" style="text;html=1;strokeColor=none;fillColor=none;align=center;verticalAlign=middle;whiteSpace=wrap;rounded=0;" vertex="1" parent="1">
          <mxGeometry x="317" y="144" width="20" height="20" as="geometry" />
        </mxCell>
        <mxCell id="tiuoFYLvW-MkzUnGiu4A-193" value="" style="shape=waypoint;sketch=0;fillStyle=solid;size=6;pointerEvents=1;points=[];fillColor=none;resizable=0;rotatable=0;perimeter=centerPerimeter;snapToPoint=1;" vertex="1" parent="1">
          <mxGeometry x="390" y="150" width="20" height="20" as="geometry" />
        </mxCell>
        <mxCell id="tiuoFYLvW-MkzUnGiu4A-194" value="" style="shape=waypoint;sketch=0;fillStyle=solid;size=6;pointerEvents=1;points=[];fillColor=none;resizable=0;rotatable=0;perimeter=centerPerimeter;snapToPoint=1;" vertex="1" parent="1">
          <mxGeometry x="330" y="150" width="20" height="20" as="geometry" />
        </mxCell>
        <mxCell id="tiuoFYLvW-MkzUnGiu4A-195" style="edgeStyle=orthogonalEdgeStyle;rounded=0;orthogonalLoop=1;jettySize=auto;html=1;endArrow=none;endFill=0;" edge="1" source="tiuoFYLvW-MkzUnGiu4A-197" parent="1">
          <mxGeometry relative="1" as="geometry">
            <mxPoint x="370" y="610" as="targetPoint" />
          </mxGeometry>
        </mxCell>
        <mxCell id="tiuoFYLvW-MkzUnGiu4A-196" style="edgeStyle=orthogonalEdgeStyle;rounded=0;orthogonalLoop=1;jettySize=auto;html=1;entryX=0.506;entryY=0.079;entryDx=0;entryDy=0;entryPerimeter=0;endArrow=none;endFill=0;" edge="1" source="tiuoFYLvW-MkzUnGiu4A-197" parent="1">
          <mxGeometry relative="1" as="geometry">
            <mxPoint x="310" y="670" as="targetPoint" />
          </mxGeometry>
        </mxCell>
        <mxCell id="tiuoFYLvW-MkzUnGiu4A-197" value="" style="shape=waypoint;sketch=0;fillStyle=solid;size=6;pointerEvents=1;points=[];fillColor=none;resizable=0;rotatable=0;perimeter=centerPerimeter;snapToPoint=1;" vertex="1" parent="1">
          <mxGeometry x="300" y="600" width="20" height="20" as="geometry" />
        </mxCell>
        <mxCell id="tiuoFYLvW-MkzUnGiu4A-198" style="edgeStyle=orthogonalEdgeStyle;rounded=0;orthogonalLoop=1;jettySize=auto;html=1;endArrow=none;endFill=0;" edge="1" parent="1">
          <mxGeometry relative="1" as="geometry">
            <mxPoint x="310" y="670" as="sourcePoint" />
            <mxPoint x="370" y="670" as="targetPoint" />
          </mxGeometry>
        </mxCell>
        <mxCell id="tiuoFYLvW-MkzUnGiu4A-199" style="orthogonalLoop=1;jettySize=auto;html=1;endArrow=none;endFill=0;rounded=0;strokeColor=default;" edge="1" parent="1">
          <mxGeometry relative="1" as="geometry">
            <mxPoint x="370" y="610" as="sourcePoint" />
            <mxPoint x="370" y="670" as="targetPoint" />
          </mxGeometry>
        </mxCell>
        <mxCell id="tiuoFYLvW-MkzUnGiu4A-200" value="\(100\)" style="text;html=1;strokeColor=none;fillColor=none;align=center;verticalAlign=middle;whiteSpace=wrap;rounded=0;" vertex="1" parent="1">
          <mxGeometry x="280" y="600" width="25" height="20" as="geometry" />
        </mxCell>
        <mxCell id="tiuoFYLvW-MkzUnGiu4A-201" value="\(10 1\)" style="text;html=1;strokeColor=none;fillColor=none;align=center;verticalAlign=middle;whiteSpace=wrap;rounded=0;" vertex="1" parent="1">
          <mxGeometry x="350" y="590" width="20" height="20" as="geometry" />
        </mxCell>
        <mxCell id="tiuoFYLvW-MkzUnGiu4A-202" value="\(000\)" style="text;html=1;strokeColor=none;fillColor=none;align=center;verticalAlign=middle;whiteSpace=wrap;rounded=0;" vertex="1" parent="1">
          <mxGeometry x="299" y="670" width="20" height="20" as="geometry" />
        </mxCell>
        <mxCell id="tiuoFYLvW-MkzUnGiu4A-203" value="\(001\)" style="text;html=1;strokeColor=none;fillColor=none;align=center;verticalAlign=middle;whiteSpace=wrap;rounded=0;" vertex="1" parent="1">
          <mxGeometry x="360" y="669" width="20" height="20" as="geometry" />
        </mxCell>
        <mxCell id="tiuoFYLvW-MkzUnGiu4A-205" value="" style="endArrow=none;html=1;rounded=0;exitX=0.524;exitY=0.626;exitDx=0;exitDy=0;exitPerimeter=0;entryX=0.476;entryY=0.932;entryDx=0;entryDy=0;entryPerimeter=0;" edge="1" source="tiuoFYLvW-MkzUnGiu4A-197" parent="1">
          <mxGeometry width="50" height="50" relative="1" as="geometry">
            <mxPoint x="370" y="650" as="sourcePoint" />
            <mxPoint x="340" y="580" as="targetPoint" />
          </mxGeometry>
        </mxCell>
        <mxCell id="tiuoFYLvW-MkzUnGiu4A-206" value="" style="shape=waypoint;sketch=0;fillStyle=solid;size=6;pointerEvents=1;points=[];fillColor=none;resizable=0;rotatable=0;perimeter=centerPerimeter;snapToPoint=1;" vertex="1" parent="1">
          <mxGeometry x="360" y="660" width="20" height="20" as="geometry" />
        </mxCell>
        <mxCell id="tiuoFYLvW-MkzUnGiu4A-207" value="" style="endArrow=none;html=1;rounded=0;" edge="1" parent="1">
          <mxGeometry width="50" height="50" relative="1" as="geometry">
            <mxPoint x="370" y="610" as="sourcePoint" />
            <mxPoint x="400" y="580" as="targetPoint" />
          </mxGeometry>
        </mxCell>
        <mxCell id="tiuoFYLvW-MkzUnGiu4A-208" value="" style="endArrow=none;html=1;rounded=0;exitX=0.637;exitY=0.521;exitDx=0;exitDy=0;exitPerimeter=0;" edge="1" parent="1">
          <mxGeometry width="50" height="50" relative="1" as="geometry">
            <mxPoint x="340" y="580" as="sourcePoint" />
            <mxPoint x="400" y="580" as="targetPoint" />
          </mxGeometry>
        </mxCell>
        <mxCell id="tiuoFYLvW-MkzUnGiu4A-209" value="" style="endArrow=none;html=1;rounded=0;exitDx=0;exitDy=0;exitPerimeter=0;" edge="1" parent="1">
          <mxGeometry width="50" height="50" relative="1" as="geometry">
            <mxPoint x="400" y="640" as="sourcePoint" />
            <mxPoint x="400" y="640" as="targetPoint" />
          </mxGeometry>
        </mxCell>
        <mxCell id="tiuoFYLvW-MkzUnGiu4A-210" value="" style="endArrow=none;html=1;rounded=0;entryX=0.742;entryY=0.102;entryDx=0;entryDy=0;entryPerimeter=0;" edge="1" parent="1">
          <mxGeometry width="50" height="50" relative="1" as="geometry">
            <mxPoint x="400" y="580" as="sourcePoint" />
            <mxPoint x="400" y="640" as="targetPoint" />
          </mxGeometry>
        </mxCell>
        <mxCell id="tiuoFYLvW-MkzUnGiu4A-211" value="" style="endArrow=none;html=1;rounded=0;" edge="1" parent="1">
          <mxGeometry width="50" height="50" relative="1" as="geometry">
            <mxPoint x="370" y="670" as="sourcePoint" />
            <mxPoint x="400" y="640" as="targetPoint" />
          </mxGeometry>
        </mxCell>
        <mxCell id="tiuoFYLvW-MkzUnGiu4A-212" value="\(011\)" style="text;html=1;strokeColor=none;fillColor=none;align=center;verticalAlign=middle;whiteSpace=wrap;rounded=0;" vertex="1" parent="1">
          <mxGeometry x="400" y="628" width="30" height="20" as="geometry" />
        </mxCell>
        <mxCell id="tiuoFYLvW-MkzUnGiu4A-213" value="\(111\)" style="text;html=1;strokeColor=none;fillColor=none;align=center;verticalAlign=middle;whiteSpace=wrap;rounded=0;" vertex="1" parent="1">
          <mxGeometry x="390" y="560" width="20" height="20" as="geometry" />
        </mxCell>
        <mxCell id="tiuoFYLvW-MkzUnGiu4A-214" value="\(110\)" style="text;html=1;strokeColor=none;fillColor=none;align=center;verticalAlign=middle;whiteSpace=wrap;rounded=0;" vertex="1" parent="1">
          <mxGeometry x="330" y="560" width="20" height="20" as="geometry" />
        </mxCell>
        <mxCell id="tiuoFYLvW-MkzUnGiu4A-215" style="orthogonalLoop=1;jettySize=auto;html=1;endArrow=none;endFill=0;rounded=0;strokeColor=default;exitX=0.597;exitY=0.948;exitDx=0;exitDy=0;exitPerimeter=0;jumpStyle=gap;entryX=0.5;entryY=0.5;entryDx=0;entryDy=0;entryPerimeter=0;" edge="1" parent="1">
          <mxGeometry relative="1" as="geometry">
            <mxPoint x="340" y="580" as="sourcePoint" />
            <mxPoint x="340" y="640" as="targetPoint" />
          </mxGeometry>
        </mxCell>
        <mxCell id="tiuoFYLvW-MkzUnGiu4A-216" style="orthogonalLoop=1;jettySize=auto;html=1;endArrow=none;endFill=0;rounded=0;strokeColor=default;exitX=-0.024;exitY=0.666;exitDx=0;exitDy=0;exitPerimeter=0;jumpStyle=gap;entryX=0.927;entryY=0.319;entryDx=0;entryDy=0;entryPerimeter=0;" edge="1" parent="1">
          <mxGeometry relative="1" as="geometry">
            <mxPoint x="340" y="640" as="sourcePoint" />
            <mxPoint x="310" y="670" as="targetPoint" />
          </mxGeometry>
        </mxCell>
        <mxCell id="tiuoFYLvW-MkzUnGiu4A-217" style="orthogonalLoop=1;jettySize=auto;html=1;endArrow=none;endFill=0;rounded=0;strokeColor=default;jumpStyle=gap;entryX=0.96;entryY=0.682;entryDx=0;entryDy=0;entryPerimeter=0;" edge="1" parent="1">
          <mxGeometry relative="1" as="geometry">
            <mxPoint x="400" y="640" as="sourcePoint" />
            <mxPoint x="340" y="640" as="targetPoint" />
          </mxGeometry>
        </mxCell>
        <mxCell id="tiuoFYLvW-MkzUnGiu4A-218" value="\(010\)" style="text;html=1;strokeColor=none;fillColor=none;align=center;verticalAlign=middle;whiteSpace=wrap;rounded=0;" vertex="1" parent="1">
          <mxGeometry x="317" y="624" width="20" height="20" as="geometry" />
        </mxCell>
        <mxCell id="tiuoFYLvW-MkzUnGiu4A-219" value="" style="shape=waypoint;sketch=0;fillStyle=solid;size=6;pointerEvents=1;points=[];fillColor=none;resizable=0;rotatable=0;perimeter=centerPerimeter;snapToPoint=1;" vertex="1" parent="1">
          <mxGeometry x="390" y="630" width="20" height="20" as="geometry" />
        </mxCell>
        <mxCell id="tiuoFYLvW-MkzUnGiu4A-220" value="" style="shape=waypoint;sketch=0;fillStyle=solid;size=6;pointerEvents=1;points=[];fillColor=none;resizable=0;rotatable=0;perimeter=centerPerimeter;snapToPoint=1;" vertex="1" parent="1">
          <mxGeometry x="330" y="630" width="20" height="20" as="geometry" />
        </mxCell>
        <mxCell id="tiuoFYLvW-MkzUnGiu4A-221" value="" style="shape=waypoint;sketch=0;fillStyle=solid;size=6;pointerEvents=1;points=[];fillColor=none;resizable=0;rotatable=0;perimeter=centerPerimeter;snapToPoint=1;" vertex="1" parent="1">
          <mxGeometry x="300" y="660" width="20" height="20" as="geometry" />
        </mxCell>
        <mxCell id="tiuoFYLvW-MkzUnGiu4A-268" style="edgeStyle=orthogonalEdgeStyle;rounded=0;orthogonalLoop=1;jettySize=auto;html=1;endArrow=none;endFill=0;" edge="1" source="tiuoFYLvW-MkzUnGiu4A-270" parent="1">
          <mxGeometry relative="1" as="geometry">
            <mxPoint x="370" y="770" as="targetPoint" />
          </mxGeometry>
        </mxCell>
        <mxCell id="tiuoFYLvW-MkzUnGiu4A-269" style="edgeStyle=orthogonalEdgeStyle;rounded=0;orthogonalLoop=1;jettySize=auto;html=1;entryX=0.506;entryY=0.079;entryDx=0;entryDy=0;entryPerimeter=0;endArrow=none;endFill=0;" edge="1" source="tiuoFYLvW-MkzUnGiu4A-270" parent="1">
          <mxGeometry relative="1" as="geometry">
            <mxPoint x="310" y="830" as="targetPoint" />
          </mxGeometry>
        </mxCell>
        <mxCell id="tiuoFYLvW-MkzUnGiu4A-270" value="" style="shape=waypoint;sketch=0;fillStyle=solid;size=6;pointerEvents=1;points=[];fillColor=none;resizable=0;rotatable=0;perimeter=centerPerimeter;snapToPoint=1;" vertex="1" parent="1">
          <mxGeometry x="300" y="760" width="20" height="20" as="geometry" />
        </mxCell>
        <mxCell id="tiuoFYLvW-MkzUnGiu4A-271" style="edgeStyle=orthogonalEdgeStyle;rounded=0;orthogonalLoop=1;jettySize=auto;html=1;endArrow=none;endFill=0;" edge="1" parent="1">
          <mxGeometry relative="1" as="geometry">
            <mxPoint x="310" y="830" as="sourcePoint" />
            <mxPoint x="370" y="830" as="targetPoint" />
          </mxGeometry>
        </mxCell>
        <mxCell id="tiuoFYLvW-MkzUnGiu4A-272" style="orthogonalLoop=1;jettySize=auto;html=1;endArrow=none;endFill=0;rounded=0;strokeColor=default;" edge="1" parent="1">
          <mxGeometry relative="1" as="geometry">
            <mxPoint x="370" y="770" as="sourcePoint" />
            <mxPoint x="370" y="830" as="targetPoint" />
          </mxGeometry>
        </mxCell>
        <mxCell id="tiuoFYLvW-MkzUnGiu4A-273" value="\(100\)" style="text;html=1;strokeColor=none;fillColor=none;align=center;verticalAlign=middle;whiteSpace=wrap;rounded=0;" vertex="1" parent="1">
          <mxGeometry x="280" y="760" width="25" height="20" as="geometry" />
        </mxCell>
        <mxCell id="tiuoFYLvW-MkzUnGiu4A-274" value="\(10 1\)" style="text;html=1;strokeColor=none;fillColor=none;align=center;verticalAlign=middle;whiteSpace=wrap;rounded=0;" vertex="1" parent="1">
          <mxGeometry x="350" y="750" width="20" height="20" as="geometry" />
        </mxCell>
        <mxCell id="tiuoFYLvW-MkzUnGiu4A-275" value="\(000\)" style="text;html=1;strokeColor=none;fillColor=none;align=center;verticalAlign=middle;whiteSpace=wrap;rounded=0;" vertex="1" parent="1">
          <mxGeometry x="299" y="830" width="20" height="20" as="geometry" />
        </mxCell>
        <mxCell id="tiuoFYLvW-MkzUnGiu4A-276" value="\(001\)" style="text;html=1;strokeColor=none;fillColor=none;align=center;verticalAlign=middle;whiteSpace=wrap;rounded=0;" vertex="1" parent="1">
          <mxGeometry x="360" y="829" width="20" height="20" as="geometry" />
        </mxCell>
        <mxCell id="tiuoFYLvW-MkzUnGiu4A-277" value="" style="endArrow=none;html=1;rounded=0;exitX=0.524;exitY=0.626;exitDx=0;exitDy=0;exitPerimeter=0;entryX=0.476;entryY=0.932;entryDx=0;entryDy=0;entryPerimeter=0;" edge="1" source="tiuoFYLvW-MkzUnGiu4A-270" parent="1">
          <mxGeometry width="50" height="50" relative="1" as="geometry">
            <mxPoint x="370" y="810" as="sourcePoint" />
            <mxPoint x="340" y="740" as="targetPoint" />
          </mxGeometry>
        </mxCell>
        <mxCell id="tiuoFYLvW-MkzUnGiu4A-278" value="" style="shape=waypoint;sketch=0;fillStyle=solid;size=6;pointerEvents=1;points=[];fillColor=none;resizable=0;rotatable=0;perimeter=centerPerimeter;snapToPoint=1;" vertex="1" parent="1">
          <mxGeometry x="360" y="820" width="20" height="20" as="geometry" />
        </mxCell>
        <mxCell id="tiuoFYLvW-MkzUnGiu4A-279" value="" style="endArrow=none;html=1;rounded=0;" edge="1" parent="1">
          <mxGeometry width="50" height="50" relative="1" as="geometry">
            <mxPoint x="370" y="770" as="sourcePoint" />
            <mxPoint x="400" y="740" as="targetPoint" />
          </mxGeometry>
        </mxCell>
        <mxCell id="tiuoFYLvW-MkzUnGiu4A-280" value="" style="endArrow=none;html=1;rounded=0;exitX=0.637;exitY=0.521;exitDx=0;exitDy=0;exitPerimeter=0;" edge="1" parent="1">
          <mxGeometry width="50" height="50" relative="1" as="geometry">
            <mxPoint x="340" y="740" as="sourcePoint" />
            <mxPoint x="400" y="740" as="targetPoint" />
          </mxGeometry>
        </mxCell>
        <mxCell id="tiuoFYLvW-MkzUnGiu4A-281" value="" style="endArrow=none;html=1;rounded=0;exitDx=0;exitDy=0;exitPerimeter=0;" edge="1" parent="1">
          <mxGeometry width="50" height="50" relative="1" as="geometry">
            <mxPoint x="400" y="800" as="sourcePoint" />
            <mxPoint x="400" y="800" as="targetPoint" />
          </mxGeometry>
        </mxCell>
        <mxCell id="tiuoFYLvW-MkzUnGiu4A-282" value="" style="endArrow=none;html=1;rounded=0;entryX=0.742;entryY=0.102;entryDx=0;entryDy=0;entryPerimeter=0;" edge="1" parent="1">
          <mxGeometry width="50" height="50" relative="1" as="geometry">
            <mxPoint x="400" y="740" as="sourcePoint" />
            <mxPoint x="400" y="800" as="targetPoint" />
          </mxGeometry>
        </mxCell>
        <mxCell id="tiuoFYLvW-MkzUnGiu4A-283" value="" style="endArrow=none;html=1;rounded=0;" edge="1" parent="1">
          <mxGeometry width="50" height="50" relative="1" as="geometry">
            <mxPoint x="370" y="830" as="sourcePoint" />
            <mxPoint x="400" y="800" as="targetPoint" />
          </mxGeometry>
        </mxCell>
        <mxCell id="tiuoFYLvW-MkzUnGiu4A-284" value="\(011\)" style="text;html=1;strokeColor=none;fillColor=none;align=center;verticalAlign=middle;whiteSpace=wrap;rounded=0;" vertex="1" parent="1">
          <mxGeometry x="400" y="788" width="30" height="20" as="geometry" />
        </mxCell>
        <mxCell id="tiuoFYLvW-MkzUnGiu4A-285" value="\(111\)" style="text;html=1;strokeColor=none;fillColor=none;align=center;verticalAlign=middle;whiteSpace=wrap;rounded=0;" vertex="1" parent="1">
          <mxGeometry x="390" y="720" width="20" height="20" as="geometry" />
        </mxCell>
        <mxCell id="tiuoFYLvW-MkzUnGiu4A-286" value="\(110\)" style="text;html=1;strokeColor=none;fillColor=none;align=center;verticalAlign=middle;whiteSpace=wrap;rounded=0;" vertex="1" parent="1">
          <mxGeometry x="330" y="720" width="20" height="20" as="geometry" />
        </mxCell>
        <mxCell id="tiuoFYLvW-MkzUnGiu4A-287" style="orthogonalLoop=1;jettySize=auto;html=1;endArrow=none;endFill=0;rounded=0;strokeColor=default;exitX=0.597;exitY=0.948;exitDx=0;exitDy=0;exitPerimeter=0;jumpStyle=gap;entryX=0.5;entryY=0.5;entryDx=0;entryDy=0;entryPerimeter=0;" edge="1" parent="1">
          <mxGeometry relative="1" as="geometry">
            <mxPoint x="340" y="740" as="sourcePoint" />
            <mxPoint x="340" y="800" as="targetPoint" />
          </mxGeometry>
        </mxCell>
        <mxCell id="tiuoFYLvW-MkzUnGiu4A-288" style="orthogonalLoop=1;jettySize=auto;html=1;endArrow=none;endFill=0;rounded=0;strokeColor=default;exitX=-0.024;exitY=0.666;exitDx=0;exitDy=0;exitPerimeter=0;jumpStyle=gap;entryX=0.927;entryY=0.319;entryDx=0;entryDy=0;entryPerimeter=0;" edge="1" parent="1">
          <mxGeometry relative="1" as="geometry">
            <mxPoint x="340" y="800" as="sourcePoint" />
            <mxPoint x="310" y="830" as="targetPoint" />
          </mxGeometry>
        </mxCell>
        <mxCell id="tiuoFYLvW-MkzUnGiu4A-289" style="orthogonalLoop=1;jettySize=auto;html=1;endArrow=none;endFill=0;rounded=0;strokeColor=default;jumpStyle=gap;entryX=0.96;entryY=0.682;entryDx=0;entryDy=0;entryPerimeter=0;" edge="1" parent="1">
          <mxGeometry relative="1" as="geometry">
            <mxPoint x="400" y="800" as="sourcePoint" />
            <mxPoint x="340" y="800" as="targetPoint" />
          </mxGeometry>
        </mxCell>
        <mxCell id="tiuoFYLvW-MkzUnGiu4A-290" value="\(010\)" style="text;html=1;strokeColor=none;fillColor=none;align=center;verticalAlign=middle;whiteSpace=wrap;rounded=0;" vertex="1" parent="1">
          <mxGeometry x="317" y="784" width="20" height="20" as="geometry" />
        </mxCell>
        <mxCell id="tiuoFYLvW-MkzUnGiu4A-291" value="" style="shape=waypoint;sketch=0;fillStyle=solid;size=6;pointerEvents=1;points=[];fillColor=none;resizable=0;rotatable=0;perimeter=centerPerimeter;snapToPoint=1;" vertex="1" parent="1">
          <mxGeometry x="390" y="790" width="20" height="20" as="geometry" />
        </mxCell>
        <mxCell id="tiuoFYLvW-MkzUnGiu4A-292" value="" style="shape=waypoint;sketch=0;fillStyle=solid;size=6;pointerEvents=1;points=[];fillColor=none;resizable=0;rotatable=0;perimeter=centerPerimeter;snapToPoint=1;" vertex="1" parent="1">
          <mxGeometry x="330" y="790" width="20" height="20" as="geometry" />
        </mxCell>
        <mxCell id="tiuoFYLvW-MkzUnGiu4A-293" value="" style="shape=waypoint;sketch=0;fillStyle=solid;size=6;pointerEvents=1;points=[];fillColor=none;resizable=0;rotatable=0;perimeter=centerPerimeter;snapToPoint=1;" vertex="1" parent="1">
          <mxGeometry x="300" y="820" width="20" height="20" as="geometry" />
        </mxCell>
        <mxCell id="tiuoFYLvW-MkzUnGiu4A-294" value="" style="shape=waypoint;sketch=0;fillStyle=solid;size=6;pointerEvents=1;points=[];fillColor=none;resizable=0;rotatable=0;perimeter=centerPerimeter;snapToPoint=1;" vertex="1" parent="1">
          <mxGeometry x="390" y="730" width="20" height="20" as="geometry" />
        </mxCell>
      </root>
    </mxGraphModel>
  </diagram>
</mxfile>
